<?xml version="1.0" encoding="UTF-8" standalone="no"?>
<svg width="98px" height="98px" viewBox="0 0 98 98" version="1.1" xmlns="http://www.w3.org/2000/svg" xmlns:xlink="http://www.w3.org/1999/xlink">
    <!-- Generator: Sketch 39.1 (31720) - http://www.bohemiancoding.com/sketch -->
    <title>Combined Shape</title>
    <desc>Created with Sketch.</desc>
    <defs></defs>
    <g id="Page-1" stroke="none" stroke-width="1" fill="none" fill-rule="evenodd">
        <g id="Desktop-HD" transform="translate(-671.000000, -70.000000)" fill="#FFFFFF">
            <g id="Group" transform="translate(671.000000, 70.000000)">
                <path d="M49,98 C76.0619527,98 98,76.0619527 98,49 C98,21.9380473 76.0619527,0 49,0 C21.9380473,0 0,21.9380473 0,49 C0,76.0619527 21.9380473,98 49,98 Z M65.9445275,58.5191073 L61.986081,58.5191073 L57.7419733,43.3519586 L54.8853624,55.9504773 L56.9666075,56.072793 L56.9666075,59.3345455 L48.7640533,59.3345455 L48.7640533,56.1951087 L50.1107413,56.1135649 C50.6548604,56.0592021 51.0221353,55.7330301 51.212577,55.1350392 L55.0894061,38.8262771 L60.9658628,38.8262771 L64.3121784,50.9763049 L64.4346046,50.9763049 L67.9033464,38.8262771 L73.9022293,38.8262771 L78.0239108,55.0942673 C78.1599406,55.474807 78.3027697,55.7330265 78.4524024,55.8689335 C78.6020352,56.0048405 78.8536865,56.0863835 79.2073639,56.1135649 L80.390817,56.1951087 L80.390817,59.3345455 L71.0456184,59.3345455 L71.0456184,56.072793 L73.3309072,55.9504773 L70.515105,43.4335024 L65.9445275,58.5191073 Z M32.032801,39.6417152 L35.9912475,39.6417152 L40.2353552,54.808864 L40.3169726,54.808864 L43.0919661,42.2103452 L41.010721,42.0880295 L41.010721,38.8262771 L49.2132752,38.8262771 L49.2132752,41.9657138 L47.8665872,42.0472576 C47.3224681,42.1016204 46.9551932,42.4277924 46.7647515,43.0257833 L42.8879224,59.3345455 L37.0114657,59.3345455 L33.6651501,47.1845177 L33.5427239,47.1845177 L30.0739821,59.3345455 L24.0750992,59.3345455 L19.9534177,43.0665552 C19.8173879,42.6860155 19.6745588,42.427796 19.5249261,42.291889 C19.3752933,42.155982 19.123642,42.074439 18.7699646,42.0472576 L17.5865115,41.9657138 L17.5865115,38.8262771 L26.9317101,38.8262771 L26.9317101,42.0880295 L24.6464213,42.2103452 L27.4622235,54.7273201 L27.543841,54.7273201 L32.032801,39.6417152 Z" id="Combined-Shape"></path>
            </g>
        </g>
    </g>
</svg>